HIERARCHY
ROOT Hips
{
  OFFSET 5.72205e-005 65.662 3.42586
  CHANNELS 6 Xposition Yposition Zposition Zrotation Xrotation Yrotation
  JOINT Chest
  {
    OFFSET 0 8.7983 -4.7612
    CHANNELS 3 Zrotation Xrotation Yrotation
    JOINT Chest2
    {
      OFFSET 0 8.0291 0.4195
      CHANNELS 3 Zrotation Xrotation Yrotation
      JOINT Chest3
      {
        OFFSET 0 9.9351 -2.2114
        CHANNELS 3 Zrotation Xrotation Yrotation
        JOINT Neck
        {
          OFFSET 0 22.3885 -0.4656
          CHANNELS 3 Zrotation Xrotation Yrotation
          JOINT Head
          {
            OFFSET -0.0001 12.643 3.4389
            CHANNELS 3 Zrotation Xrotation Yrotation
            End Site
            {
              OFFSET 0.0001 17.6655 0.5274
            }
          }
        }
        JOINT LeftCollar
        {
          OFFSET 2.2603 21.606 7.4023
          CHANNELS 3 Zrotation Xrotation Yrotation
          JOINT LeftShoulder
          {
            OFFSET 13.5163 -1.1332 -5.0146
            CHANNELS 3 Zrotation Xrotation Yrotation
            JOINT LeftElbow
            {
              OFFSET -0.0995 -28.05 -0.2431
              CHANNELS 3 Zrotation Xrotation Yrotation
              JOINT LeftWrist
              {
                OFFSET 0.0679 -23.3996 -0.1402
                CHANNELS 3 Zrotation Xrotation Yrotation
                JOINT LeftFinger1
                {
                  OFFSET 0.7932 -9.069 2.5189
                  CHANNELS 3 Zrotation Xrotation Yrotation
                  JOINT LeftFinger11
                  {
                    OFFSET -0.8272 -3.3923 0.5977
                    CHANNELS 3 Zrotation Xrotation Yrotation
                    JOINT LeftFinger12
                    {
                      OFFSET -0.5649 -2.3158 0.4082
                      CHANNELS 3 Zrotation Xrotation Yrotation
                      End Site
                      {
                        OFFSET -0.4919 -1.6479 0.2673
                      }
                    }
                  }
                }
                JOINT LeftFinger2
                {
                  OFFSET 0.9159 -9.2044 0.2193
                  CHANNELS 3 Zrotation Xrotation Yrotation
                  JOINT LeftFinger21
                  {
                    OFFSET 0.0117 -4.1944 -0.0248
                    CHANNELS 3 Zrotation Xrotation Yrotation
                    JOINT LeftFinger22
                    {
                      OFFSET 0.0071 -2.3249 -0.0142
                      CHANNELS 3 Zrotation Xrotation Yrotation
                      End Site
                      {
                        OFFSET -0.1475 -2.0882 0.0028
                      }
                    }
                  }
                }
                JOINT LeftFinger3
                {
                  OFFSET 0.6113 -8.7231 -2.0637
                  CHANNELS 3 Zrotation Xrotation Yrotation
                  JOINT LeftFinger31
                  {
                    OFFSET -0.1927 -3.8059 -0.2383
                    CHANNELS 3 Zrotation Xrotation Yrotation
                    JOINT LeftFinger32
                    {
                      OFFSET -0.1091 -2.1688 -0.1362
                      CHANNELS 3 Zrotation Xrotation Yrotation
                      End Site
                      {
                        OFFSET -0.2358 -1.9176 -0.0906
                      }
                    }
                  }
                }
                JOINT LeftFinger4
                {
                  OFFSET -0.6151 -8.0947 -3.5641
                  CHANNELS 3 Zrotation Xrotation Yrotation
                  JOINT LeftFinger41
                  {
                    OFFSET -0.4882 -2.341 -0.6462
                    CHANNELS 3 Zrotation Xrotation Yrotation
                    JOINT LeftFinger42
                    {
                      OFFSET -0.3575 -1.7167 -0.4742
                      CHANNELS 3 Zrotation Xrotation Yrotation
                      End Site
                      {
                        OFFSET -0.4187 -1.5237 -0.3496
                      }
                    }
                  }
                }
                JOINT LeftFinger0
                {
                  OFFSET -1.42 -1.8761 1.4223
                  CHANNELS 3 Zrotation Xrotation Yrotation
                  JOINT LeftFinger01
                  {
                    OFFSET -1.1471 -3.4929 2.6334
                    CHANNELS 3 Zrotation Xrotation Yrotation
                    JOINT LeftFinger02
                    {
                      OFFSET -0.823 -2.3 1.6571
                      CHANNELS 3 Zrotation Xrotation Yrotation
                      End Site
                      {
                        OFFSET -0.5822 -1.6914 1.1582
                      }
                    }
                  }
                }
              }
            }
          }
        }
        JOINT RightCollar
        {
          OFFSET -2.2603 21.606 7.4023
          CHANNELS 3 Zrotation Xrotation Yrotation
          JOINT RightShoulder
          {
            OFFSET -13.5187 -1.1334 -5.0155
            CHANNELS 3 Zrotation Xrotation Yrotation
            JOINT RightElbow
            {
              OFFSET 0.0994 -28.0499 -0.2431
              CHANNELS 3 Zrotation Xrotation Yrotation
              JOINT RightWrist
              {
                OFFSET -0.0679 -23.3996 -0.1402
                CHANNELS 3 Zrotation Xrotation Yrotation
                JOINT RightFinger1
                {
                  OFFSET -0.7932 -9.0691 2.5189
                  CHANNELS 3 Zrotation Xrotation Yrotation
                  JOINT RightFinger11
                  {
                    OFFSET 0.8272 -3.3923 0.5977
                    CHANNELS 3 Zrotation Xrotation Yrotation
                    JOINT RightFinger12
                    {
                      OFFSET 0.565 -2.3158 0.4082
                      CHANNELS 3 Zrotation Xrotation Yrotation
                      End Site
                      {
                        OFFSET 0.4919 -1.6479 0.2673
                      }
                    }
                  }
                }
                JOINT RightFinger2
                {
                  OFFSET -0.916 -9.2044 0.2193
                  CHANNELS 3 Zrotation Xrotation Yrotation
                  JOINT RightFinger21
                  {
                    OFFSET -0.0117 -4.1944 -0.0248
                    CHANNELS 3 Zrotation Xrotation Yrotation
                    JOINT RightFinger22
                    {
                      OFFSET -0.0071 -2.3249 -0.0142
                      CHANNELS 3 Zrotation Xrotation Yrotation
                      End Site
                      {
                        OFFSET 0.1475 -2.0882 0.0028
                      }
                    }
                  }
                }
                JOINT RightFinger3
                {
                  OFFSET -0.6113 -8.7231 -2.0637
                  CHANNELS 3 Zrotation Xrotation Yrotation
                  JOINT RightFinger31
                  {
                    OFFSET 0.1927 -3.8059 -0.2383
                    CHANNELS 3 Zrotation Xrotation Yrotation
                    JOINT RightFinger32
                    {
                      OFFSET 0.1091 -2.1688 -0.1362
                      CHANNELS 3 Zrotation Xrotation Yrotation
                      End Site
                      {
                        OFFSET 0.2358 -1.9176 -0.0906
                      }
                    }
                  }
                }
                JOINT RightFinger4
                {
                  OFFSET 0.6151 -8.0947 -3.564
                  CHANNELS 3 Zrotation Xrotation Yrotation
                  JOINT RightFinger41
                  {
                    OFFSET 0.4882 -2.341 -0.6462
                    CHANNELS 3 Zrotation Xrotation Yrotation
                    JOINT RightFinger42
                    {
                      OFFSET 0.3574 -1.7166 -0.4742
                      CHANNELS 3 Zrotation Xrotation Yrotation
                      End Site
                      {
                        OFFSET 0.4187 -1.5237 -0.3496
                      }
                    }
                  }
                }
                JOINT RightFinger0
                {
                  OFFSET 1.4199 -1.8761 1.4221
                  CHANNELS 3 Zrotation Xrotation Yrotation
                  JOINT RightFinger01
                  {
                    OFFSET 1.1472 -3.4929 2.6336
                    CHANNELS 3 Zrotation Xrotation Yrotation
                    JOINT RightFinger02
                    {
                      OFFSET 0.8229 -2.3 1.6571
                      CHANNELS 3 Zrotation Xrotation Yrotation
                      End Site
                      {
                        OFFSET 0.5822 -1.6914 1.1582
                      }
                    }
                  }
                }
              }
            }
          }
        }
      }
    }
  }
  JOINT RightHip
  {
    OFFSET -9.412 3.9771 -0.7758
    CHANNELS 3 Zrotation Xrotation Yrotation
    JOINT RightKnee
    {
      OFFSET -0.7531 -40.938 0
      CHANNELS 3 Zrotation Xrotation Yrotation
      JOINT RightAnkle
      {
        OFFSET 0 -40.1986 0
        CHANNELS 3 Zrotation Xrotation Yrotation
        JOINT RightToe
        {
          OFFSET 0 -4.4182 9.239
          CHANNELS 3 Zrotation Xrotation Yrotation
          End Site
          {
            OFFSET 0 0 6.1981
          }
        }
      }
    }
  }
  JOINT LeftHip
  {
    OFFSET 9.4119 3.9773 -0.7758
    CHANNELS 3 Zrotation Xrotation Yrotation
    JOINT LeftKnee
    {
      OFFSET 0.7532 -40.9383 0
      CHANNELS 3 Zrotation Xrotation Yrotation
      JOINT LeftAnkle
      {
        OFFSET 0 -40.1986 0
        CHANNELS 3 Zrotation Xrotation Yrotation
        JOINT LeftToe
        {
          OFFSET 0 -4.4182 9.239
          CHANNELS 3 Zrotation Xrotation Yrotation
          End Site
          {
            OFFSET 0 0 6.1981
          }
        }
      }
    }
  }
}
MOTION
Frames:	4
Frame Time:	0.0333333
0.0035795 20.2766 -39.1653 0.665365 -80.127 -179.195 1.1573 5.07329 -0.52255 2.37525 10.1346 -1.15516 2.37525 10.1347 -1.15516 12.3298 24.9021 -5.17732 -6.89328e-006 7.79039 1.55172e-006 -6.33213 -2.60355 -4.24901 91.3177 -39.6888 11.53 13.6823 -34.2228 13.8929 69.0806 -6.10413 10.2629 -1.10348e-032 1.59028e-015 3.97569e-016 -0 -1.59028e-015 -0 -0 0 3.97569e-016 -1.10348e-032 1.59028e-015 3.97569e-016 -0.012833 0.00232989 9.187e-005 2.72122e-006 -3.83351e-008 -1.47438e-006 -1.10348e-032 1.59028e-015 3.97569e-016 -0.0160076 0.00298504 0.000849816 2.46624e-006 -2.27793e-006 2.11374e-007 -1.10348e-032 1.59028e-015 3.97569e-016 -0.0125751 0.00310653 0.00282017 2.14698e-006 2.9518e-007 -3.10123e-006 -1.10348e-032 1.59028e-015 3.97569e-016 -0 -1.59028e-015 -0 -0 0 3.97569e-016 0.795081 -9.7872 4.72563 -91.3023 -46.6216 -12.0283 -17.5774 -42.0831 -16.9802 -64.7442 -5.42643 -3.77766 -7.61948e-006 -4.28887e-006 1.20687e-005 -5.77604e-007 4.90593e-007 4.71905e-007 -1.59028e-015 1.59028e-015 -4.37326e-015 -7.61948e-006 -4.28887e-006 1.20687e-005 0.0129424 0.00232592 -8.98126e-005 4.41391e-032 -1.59028e-015 1.59028e-015 -7.61948e-006 -4.28887e-006 1.20687e-005 0.016362 0.00304192 -0.00087051 6.62086e-032 3.18055e-015 -1.19271e-015 -7.61948e-006 -4.28887e-006 1.20687e-005 0.0146234 0.00370795 -0.00328214 1.59028e-015 -4.77083e-015 -3.57812e-015 -7.61948e-006 -4.28887e-006 1.20687e-005 -5.77604e-007 4.90593e-007 4.71905e-007 -1.59028e-015 1.59028e-015 -4.37326e-015 -126.887 -58.2346 -141.153 -173.847 48.8901 171.761 -8.37733 42.1518 0.877843 7.95139e-016 6.91762e-006 7.95139e-016 126.891 -58.2522 141.136 173.871 48.8889 -171.798 8.37678 42.1441 -0.884489 1.59028e-015 -9.54166e-015 -1.59028e-015 
0.0040223 20.035 -38.7041 0.791229 -80.929 -179.059 1.05713 4.64755 -0.470266 2.16336 9.28541 -1.03192 2.16336 9.28543 -1.03193 12.3227 25.293 -5.27121 4.52768e-006 7.84258 -1.44484e-006 -6.32696 -2.39729 -4.96344 91.3177 -39.6887 11.53 13.6824 -34.2229 13.893 68.3193 -6.28194 9.97965 8.82781e-032 -1.27222e-014 3.97569e-016 -1.59028e-015 -1.27222e-014 -1.19271e-015 -3.18055e-015 -1.59028e-014 -1.59028e-015 8.82781e-032 -1.27222e-014 3.97569e-016 -0.0128237 0.00233335 9.25343e-005 1.59028e-015 -1.59028e-015 3.97569e-016 8.82781e-032 -1.27222e-014 3.97569e-016 -0.0160078 0.00298262 0.000849854 -4.94915e-007 8.24997e-006 1.42172e-005 8.82781e-032 -1.27222e-014 3.97569e-016 -0.0126053 0.00312409 0.00283713 1.59028e-015 1.59028e-015 -7.95139e-016 8.82781e-032 -1.27222e-014 3.97569e-016 -1.59028e-015 -1.27222e-014 -1.19271e-015 -3.18055e-015 -1.59028e-014 -1.59028e-015 1.17723 -8.99334 4.98835 -91.3497 -46.3834 -12.0834 -17.2336 -41.4278 -16.7593 -64.3257 -5.55631 -4.10836 4.12706e-006 8.83394e-006 -1.40653e-005 1.59028e-015 3.18055e-015 -1.98785e-015 1.59028e-015 1.59028e-015 -3.97569e-016 4.12706e-006 8.83394e-006 -1.40653e-005 0.0129312 0.00229015 -7.67204e-005 -8.82781e-032 1.59028e-015 3.18055e-015 4.12706e-006 8.83394e-006 -1.40653e-005 0.0163198 0.00301653 -0.000859093 6.98858e-006 -5.3966e-006 -5.79396e-006 4.12706e-006 8.83394e-006 -1.40653e-005 0.014605 0.00367474 -0.00326403 -0 0 1.19271e-015 4.12706e-006 8.83394e-006 -1.40653e-005 1.59028e-015 3.18055e-015 -1.98785e-015 1.59028e-015 1.59028e-015 -3.97569e-016 -129.022 -57.3124 -143.348 -173.917 48.1201 171.757 -8.34538 42.0995 0.830966 1.77281e-006 2.12526e-008 -3.32821e-007 129.026 -57.3288 143.332 173.939 48.1179 -171.792 8.34471 42.0913 -0.837565 -9.88606e-007 1.68499e-006 -1.36837e-006 
0.00447315 19.7944 -38.2443 0.942439 -81.7309 -178.897 0.956881 4.22167 -0.421656 1.95296 8.43557 -0.917918 1.95297 8.4356 -0.917921 12.3162 25.6834 -5.36521 -5.86954e-006 7.89477 6.34844e-007 -6.3192 -2.19111 -5.67773 91.3177 -39.6887 11.53 13.6823 -34.2229 13.893 67.557 -6.45593 9.69405 3.18055e-015 -9.54166e-015 -0 1.59028e-015 -1.11319e-014 3.97569e-016 3.18055e-015 -1.27222e-014 -1.19271e-015 3.18055e-015 -9.54166e-015 -0 -0.0128332 0.00232329 7.92506e-005 -8.82781e-032 3.18055e-015 1.59028e-015 3.18055e-015 -9.54166e-015 -0 -0.0160523 0.00299557 0.000855242 -1.59028e-015 0 -3.97569e-016 3.18055e-015 -9.54166e-015 -0 -0.0125707 0.00311057 0.00281904 4.77083e-015 1.59028e-015 -0 3.18055e-015 -9.54166e-015 -0 1.59028e-015 -1.11319e-014 3.97569e-016 3.18055e-015 -1.27222e-014 -1.19271e-015 1.5549 -8.19778 5.24514 -91.3984 -46.1461 -12.1393 -16.8952 -40.7705 -16.5455 -63.9078 -5.68856 -4.43821 -1.76556e-031 -1.27222e-014 -7.95139e-016 -1.98626e-031 -1.43125e-014 -7.95139e-016 -3.53113e-031 -1.27222e-014 -1.59028e-015 -1.76556e-031 -1.27222e-014 -7.95139e-016 0.0129447 0.00231885 -8.47169e-005 3.18055e-015 4.77083e-015 -2.38542e-015 -1.76556e-031 -1.27222e-014 -7.95139e-016 0.0163165 0.00305197 -0.000869415 -1.59028e-015 1.59028e-015 -3.97569e-016 -1.76556e-031 -1.27222e-014 -7.95139e-016 0.014548 0.0036668 -0.00324939 1.59028e-015 -4.77083e-015 2.38542e-015 -1.76556e-031 -1.27222e-014 -7.95139e-016 -1.98626e-031 -1.43125e-014 -7.95139e-016 -3.53113e-031 -1.27222e-014 -1.59028e-015 -131.038 -56.3519 -145.426 -173.986 47.3498 171.751 -8.31329 42.045 0.783223 1.77431e-006 -4.05239e-006 -3.33045e-007 131.042 -56.3671 145.411 174.005 47.3468 -171.783 8.31248 42.0362 -0.789778 2.26492e-006 6.90076e-006 3.51888e-007 
0.00493578 19.5548 -37.7859 1.12716 -82.5326 -178.702 0.856562 3.79592 -0.376723 1.74393 7.58566 -0.813101 1.74394 7.58566 -0.813103 12.3198 26.1716 -5.48303 2.64585e-006 7.98496 -5.00524e-007 -6.30888 -1.98505 -6.3918 91.3177 -39.6887 11.53 13.6823 -34.2229 13.893 66.7936 -6.62617 9.40604 -4.90965e-006 3.29301e-006 -9.47686e-007 3.18055e-015 1.59028e-015 7.95139e-016 3.18055e-015 4.77083e-015 3.97569e-016 -4.90965e-006 3.29301e-006 -9.47686e-007 -0.0127724 0.00232747 9.40001e-005 3.18055e-015 0 -0 -4.90965e-006 3.29301e-006 -9.47686e-007 -0.015996 0.00298651 0.000863961 1.59028e-015 3.18055e-015 7.95139e-016 -4.90965e-006 3.29301e-006 -9.47686e-007 -0.0126247 0.0031402 0.00284371 0 0 -3.97569e-016 -4.90965e-006 3.29301e-006 -9.47686e-007 3.18055e-015 1.59028e-015 7.95139e-016 3.18055e-015 4.77083e-015 3.97569e-016 1.92811 -7.40082 5.49606 -91.4447 -45.9079 -12.1935 -16.5646 -40.1133 -16.3392 -63.4906 -5.8232 -4.76708 -3.28335e-006 6.76986e-007 -8.23711e-007 -2.54229e-006 3.28078e-006 -4.1039e-006 1.64167e-006 -4.7739e-006 4.11856e-007 -3.28335e-006 6.76986e-007 -8.23711e-007 0.0129515 0.00231532 -9.15998e-005 2.38266e-006 1.89917e-006 -2.86823e-006 -3.28335e-006 6.76986e-007 -8.23711e-007 0.0163252 0.00303602 -0.00087554 -8.60712e-031 3.18055e-015 1.55052e-014 -3.28335e-006 6.76986e-007 -8.23711e-007 0.0146048 0.00368594 -0.00327419 4.34652e-006 3.12522e-006 1.71016e-006 -3.28335e-006 6.76986e-007 -8.23711e-007 -2.54229e-006 3.28078e-006 -4.1039e-006 1.64167e-006 -4.7739e-006 4.11856e-007 -132.939 -55.357 -147.391 -174.054 46.5795 171.742 -8.28108 41.988 0.734619 -2.27273e-006 -9.15102e-007 -3.505e-007 132.943 -55.3711 147.377 174.071 46.5755 -171.772 8.28017 41.9786 -0.741166 -1.59028e-015 -3.18055e-015 2.38542e-015 
